<svg width="1920" height="1080" xmlns="http://www.w3.org/2000/svg">
  <defs>
    <linearGradient id="softGreen" x1="0%" y1="0%" x2="100%" y2="100%">
      <stop offset="0%" style="stop-color:#F0FFF0;stop-opacity:1" />
      <stop offset="25%" style="stop-color:#E6FFE6;stop-opacity:1" />
      <stop offset="50%" style="stop-color:#D4F4DD;stop-opacity:1" />
      <stop offset="75%" style="stop-color:#C8E6C9;stop-opacity:1" />
      <stop offset="100%" style="stop-color:#F1F8E9;stop-opacity:1" />
    </linearGradient>
    <radialGradient id="leafGlow" cx="40%" cy="30%" r="45%">
      <stop offset="0%" style="stop-color:#C8E6C9;stop-opacity:0.6" />
      <stop offset="50%" style="stop-color:#D4F4DD;stop-opacity:0.3" />
      <stop offset="100%" style="stop-color:#D4F4DD;stop-opacity:0" />
    </radialGradient>
    <radialGradient id="treeGlow" cx="80%" cy="70%" r="35%">
      <stop offset="0%" style="stop-color:#A5D6A7;stop-opacity:0.5" />
      <stop offset="70%" style="stop-color:#C8E6C9;stop-opacity:0.3" />
      <stop offset="100%" style="stop-color:#C8E6C9;stop-opacity:0" />
    </radialGradient>
  </defs>
  <rect width="100%" height="100%" fill="url(#softGreen)"/>
  
  <!-- 叶子图案 -->
  <ellipse cx="768" cy="324" rx="250" ry="120" fill="url(#leafGlow)"/>
  <path d="M600,400 Q700,350 800,400 Q700,450 600,400" fill="#A5D6A7" opacity="0.4"/>
  <path d="M800,400 Q900,350 1000,400 Q900,450 800,400" fill="#C8E6C9" opacity="0.5"/>
  
  <!-- 树形图案 -->
  <g transform="translate(1536,756)">
    <rect x="-10" y="0" width="20" height="80" fill="#8D6E63" opacity="0.6"/>
    <ellipse cx="0" cy="-20" rx="40" ry="60" fill="url(#treeGlow)"/>
    <ellipse cx="-15" cy="-30" rx="25" ry="40" fill="#A5D6A7" opacity="0.5"/>
    <ellipse cx="15" cy="-30" rx="25" ry="40" fill="#C8E6C9" opacity="0.4"/>
  </g>
  
  <!-- 花朵图案 -->
  <g transform="translate(400,200)">
    <circle cx="0" cy="0" r="30" fill="#C8E6C9" opacity="0.6"/>
    <ellipse cx="0" cy="-20" rx="8" ry="25" fill="#A5D6A7" opacity="0.7"/>
    <ellipse cx="0" cy="-20" rx="8" ry="25" fill="#A5D6A7" opacity="0.7" transform="rotate(72 0 -20)"/>
    <ellipse cx="0" cy="-20" rx="8" ry="25" fill="#A5D6A7" opacity="0.7" transform="rotate(144 0 -20)"/>
    <ellipse cx="0" cy="-20" rx="8" ry="25" fill="#A5D6A7" opacity="0.7" transform="rotate(216 0 -20)"/>
    <ellipse cx="0" cy="-20" rx="8" ry="25" fill="#A5D6A7" opacity="0.7" transform="rotate(288 0 -20)"/>
  </g>
  
  <!-- 圆形装饰 -->
  <circle cx="700" cy="300" r="80" fill="#C8E6C9" opacity="0.5"/>
  <circle cx="800" cy="280" r="60" fill="#D4F4DD" opacity="0.6"/>
  <circle cx="750" cy="350" r="40" fill="#E6FFE6" opacity="0.7"/>
  <circle cx="850" cy="320" r="30" fill="#C8E6C9" opacity="0.4"/>
  
  <!-- 菱形装饰 -->
  <g transform="translate(1200,500) rotate(45)">
    <rect x="-20" y="-20" width="40" height="40" fill="#A5D6A7" opacity="0.4"/>
  </g>
  <g transform="translate(300,600) rotate(45)">
    <rect x="-15" y="-15" width="30" height="30" fill="#C8E6C9" opacity="0.5"/>
  </g>
</svg>
