<svg width="1920" height="1080" xmlns="http://www.w3.org/2000/svg">
  <defs>
    <linearGradient id="coralWarmth" x1="0%" y1="0%" x2="100%" y2="100%">
      <stop offset="0%" style="stop-color:#FF7F7F;stop-opacity:1" />
      <stop offset="25%" style="stop-color:#FF6B6B;stop-opacity:1" />
      <stop offset="50%" style="stop-color:#FF8E8E;stop-opacity:1" />
      <stop offset="75%" style="stop-color:#FFA07A;stop-opacity:1" />
      <stop offset="100%" style="stop-color:#FFB6C1;stop-opacity:1" />
    </linearGradient>
    <radialGradient id="heartGlow" cx="60%" cy="40%" r="50%">
      <stop offset="0%" style="stop-color:#FF6B6B;stop-opacity:0.7" />
      <stop offset="50%" style="stop-color:#FF8E8E;stop-opacity:0.4" />
      <stop offset="100%" style="stop-color:#FF8E8E;stop-opacity:0" />
    </radialGradient>
    <radialGradient id="starGlow" cx="20%" cy="70%" r="30%">
      <stop offset="0%" style="stop-color:#FFA07A;stop-opacity:0.6" />
      <stop offset="70%" style="stop-color:#FFB6C1;stop-opacity:0.3" />
      <stop offset="100%" style="stop-color:#FFB6C1;stop-opacity:0" />
    </radialGradient>
  </defs>
  <rect width="100%" height="100%" fill="url(#coralWarmth)"/>
  
  <!-- 心形图案 -->
  <path d="M960,400 C960,350 920,320 880,320 C840,320 800,350 800,400 C800,450 880,520 960,600 C1040,520 1120,450 1120,400 C1120,350 1080,320 1040,320 C1000,320 960,350 960,400 Z" fill="url(#heartGlow)"/>
  
  <!-- 星星图案 -->
  <g transform="translate(384,756)">
    <path d="M0,-40 L12,-12 L40,-12 L20,8 L28,40 L0,24 L-28,40 L-20,8 L-40,-12 L-12,-12 Z" fill="url(#starGlow)"/>
  </g>
  
  <!-- 圆形装饰 -->
  <circle cx="200" cy="200" r="60" fill="#FF6B6B" opacity="0.3"/>
  <circle cx="1720" cy="300" r="80" fill="#FF8E8E" opacity="0.4"/>
  <circle cx="300" cy="800" r="50" fill="#FFA07A" opacity="0.5"/>
  <circle cx="1500" cy="700" r="70" fill="#FFB6C1" opacity="0.3"/>
  
  <!-- 菱形装饰 -->
  <g transform="translate(1200,500) rotate(45)">
    <rect x="-30" y="-30" width="60" height="60" fill="#FF7F7F" opacity="0.4"/>
  </g>
  <g transform="translate(600,200) rotate(45)">
    <rect x="-25" y="-25" width="50" height="50" fill="#FF8E8E" opacity="0.5"/>
  </g>
</svg>




