<svg width="1920" height="1080" xmlns="http://www.w3.org/2000/svg">
  <defs>
    <linearGradient id="tealOcean" x1="0%" y1="0%" x2="100%" y2="100%">
      <stop offset="0%" style="stop-color:#20B2AA;stop-opacity:1" />
      <stop offset="25%" style="stop-color:#48CAE4;stop-opacity:1" />
      <stop offset="50%" style="stop-color:#90E0EF;stop-opacity:1" />
      <stop offset="75%" style="stop-color:#ADE8F4;stop-opacity:1" />
      <stop offset="100%" style="stop-color:#E0F6FF;stop-opacity:1" />
    </linearGradient>
    <radialGradient id="waveGlow" cx="50%" cy="30%" r="60%">
      <stop offset="0%" style="stop-color:#48CAE4;stop-opacity:0.6" />
      <stop offset="50%" style="stop-color:#90E0EF;stop-opacity:0.3" />
      <stop offset="100%" style="stop-color:#90E0EF;stop-opacity:0" />
    </radialGradient>
    <radialGradient id="bubbleGlow" cx="80%" cy="20%" r="25%">
      <stop offset="0%" style="stop-color:#ADE8F4;stop-opacity:0.7" />
      <stop offset="70%" style="stop-color:#E0F6FF;stop-opacity:0.4" />
      <stop offset="100%" style="stop-color:#E0F6FF;stop-opacity:0" />
    </radialGradient>
  </defs>
  <rect width="100%" height="100%" fill="url(#tealOcean)"/>
  
  <!-- 波浪图案 -->
  <path d="M0,400 Q240,300 480,400 T960,400 T1440,400 T1920,400 L1920,600 L0,600 Z" fill="url(#waveGlow)"/>
  <path d="M0,500 Q320,450 640,500 T1280,500 T1920,500 L1920,700 L0,700 Z" fill="#48CAE4" opacity="0.3"/>
  
  <!-- 气泡图案 -->
  <circle cx="1536" cy="216" r="80" fill="url(#bubbleGlow)"/>
  <circle cx="1500" cy="180" r="50" fill="#ADE8F4" opacity="0.6"/>
  <circle cx="1580" cy="200" r="30" fill="#E0F6FF" opacity="0.7"/>
  <circle cx="1520" cy="240" r="20" fill="#90E0EF" opacity="0.8"/>
  
  <!-- 三角形装饰 -->
  <polygon points="300,200 350,300 250,300" fill="#20B2AA" opacity="0.4"/>
  <polygon points="1600,600 1700,700 1500,700" fill="#48CAE4" opacity="0.5"/>
  <polygon points="100,700 150,800 50,800" fill="#90E0EF" opacity="0.3"/>
  
  <!-- 六边形装饰 -->
  <g transform="translate(800,300)">
    <polygon points="0,-40 35,-20 35,20 0,40 -35,20 -35,-20" fill="#ADE8F4" opacity="0.4"/>
  </g>
  <g transform="translate(1200,600)">
    <polygon points="0,-30 25,-15 25,15 0,30 -25,15 -25,-15" fill="#48CAE4" opacity="0.5"/>
  </g>
  
  <!-- 椭圆装饰 -->
  <ellipse cx="400" cy="600" rx="100" ry="60" fill="#20B2AA" opacity="0.3"/>
  <ellipse cx="1400" cy="200" rx="80" ry="120" fill="#90E0EF" opacity="0.4"/>
</svg>



