<svg width="1920" height="1080" xmlns="http://www.w3.org/2000/svg">
  <defs>
    <linearGradient id="amberGlow" x1="0%" y1="0%" x2="100%" y2="100%">
      <stop offset="0%" style="stop-color:#FFB347;stop-opacity:1" />
      <stop offset="25%" style="stop-color:#FFA500;stop-opacity:1" />
      <stop offset="50%" style="stop-color:#FF8C00;stop-opacity:1" />
      <stop offset="75%" style="stop-color:#FF7F50;stop-opacity:1" />
      <stop offset="100%" style="stop-color:#FFE4B5;stop-opacity:1" />
    </linearGradient>
    <radialGradient id="sunGlow" cx="30%" cy="20%" r="50%">
      <stop offset="0%" style="stop-color:#FFA500;stop-opacity:0.8" />
      <stop offset="50%" style="stop-color:#FF8C00;stop-opacity:0.5" />
      <stop offset="100%" style="stop-color:#FF8C00;stop-opacity:0" />
    </radialGradient>
    <radialGradient id="flameGlow" cx="70%" cy="60%" r="40%">
      <stop offset="0%" style="stop-color:#FF7F50;stop-opacity:0.7" />
      <stop offset="50%" style="stop-color:#FFB347;stop-opacity:0.4" />
      <stop offset="100%" style="stop-color:#FFB347;stop-opacity:0" />
    </radialGradient>
  </defs>
  <rect width="100%" height="100%" fill="url(#amberGlow)"/>
  
  <!-- 太阳图案 -->
  <circle cx="576" cy="216" r="100" fill="url(#sunGlow)"/>
  <circle cx="576" cy="216" r="80" fill="#FFA500" opacity="0.7"/>
  <circle cx="576" cy="216" r="60" fill="#FF8C00" opacity="0.8"/>
  
  <!-- 太阳光线 -->
  <g stroke="#FFA500" stroke-width="4" opacity="0.6">
    <line x1="576" y1="116" x2="576" y2="80"/>
    <line x1="576" y1="316" x2="576" y2="350"/>
    <line x1="476" y1="216" x2="440" y2="216"/>
    <line x1="676" y1="216" x2="710" y2="216"/>
    <line x1="520" y1="160" x2="500" y2="130"/>
    <line x1="632" y1="160" x2="652" y2="130"/>
    <line x1="520" y1="272" x2="500" y2="302"/>
    <line x1="632" y1="272" x2="652" y2="302"/>
  </g>
  
  <!-- 火焰图案 -->
  <path d="M1344,600 Q1320,550 1344,500 Q1368,550 1344,600 Q1320,650 1344,700 Q1368,650 1344,600" fill="url(#flameGlow)"/>
  <path d="M1344,600 Q1330,570 1344,540 Q1358,570 1344,600 Q1330,630 1344,660 Q1358,630 1344,600" fill="#FF7F50" opacity="0.8"/>
  
  <!-- 花瓣图案 -->
  <g transform="translate(960,400)">
    <ellipse cx="0" cy="-40" rx="20" ry="60" fill="#FFB347" opacity="0.6"/>
    <ellipse cx="0" cy="-40" rx="20" ry="60" fill="#FFA500" opacity="0.6" transform="rotate(72 0 -40)"/>
    <ellipse cx="0" cy="-40" rx="20" ry="60" fill="#FF8C00" opacity="0.6" transform="rotate(144 0 -40)"/>
    <ellipse cx="0" cy="-40" rx="20" ry="60" fill="#FF7F50" opacity="0.6" transform="rotate(216 0 -40)"/>
    <ellipse cx="0" cy="-40" rx="20" ry="60" fill="#FFB347" opacity="0.6" transform="rotate(288 0 -40)"/>
    <circle cx="0" cy="0" r="30" fill="#FFA500" opacity="0.7"/>
  </g>
  
  <!-- 几何装饰 -->
  <g transform="translate(200,600)">
    <rect x="-25" y="-25" width="50" height="50" fill="#FF8C00" opacity="0.4" transform="rotate(45)"/>
  </g>
  <g transform="translate(1600,300)">
    <rect x="-30" y="-30" width="60" height="60" fill="#FFB347" opacity="0.5" transform="rotate(30)"/>
  </g>
  
  <!-- 星形装饰 -->
  <g transform="translate(1200,800)">
    <path d="M0,-30 L9,-9 L30,-9 L18,6 L24,27 L0,18 L-24,27 L-18,6 L-30,-9 L-9,-9 Z" fill="#FF7F50" opacity="0.5"/>
  </g>
  <g transform="translate(400,200)">
    <path d="M0,-20 L6,-6 L20,-6 L12,4 L16,18 L0,12 L-16,18 L-12,4 L-20,-6 L-6,-6 Z" fill="#FFA500" opacity="0.6"/>
  </g>
</svg>
