<svg xmlns="http://www.w3.org/2000/svg" viewBox="0 0 64 64" width="64" height="64">
  <defs>
    <linearGradient id="aiGradient" x1="0%" y1="0%" x2="100%" y2="100%">
      <stop offset="0%" style="stop-color:#4A90E2;stop-opacity:1" />
      <stop offset="100%" style="stop-color:#357ABD;stop-opacity:1" />
    </linearGradient>
  </defs>
  
  <!-- 背景圆形 -->
  <circle cx="32" cy="32" r="30" fill="url(#aiGradient)" stroke="#2E5C8A" stroke-width="2"/>
  
  <!-- AI 大脑图标 -->
  <path d="M 32 12 C 25 12, 19 16, 19 22 C 19 24, 20 26, 21 27 L 21 35 C 20 36, 19 38, 19 40 C 19 46, 25 50, 32 50 C 39 50, 45 46, 45 40 C 45 38, 44 36, 43 35 L 43 27 C 44 26, 45 24, 45 22 C 45 16, 39 12, 32 12 Z" 
        fill="#FFFFFF" opacity="0.9"/>
  
  <!-- 神经网络节点 -->
  <circle cx="25" cy="22" r="2.5" fill="#4A90E2"/>
  <circle cx="32" cy="22" r="2.5" fill="#4A90E2"/>
  <circle cx="39" cy="22" r="2.5" fill="#4A90E2"/>
  <circle cx="28" cy="32" r="2.5" fill="#4A90E2"/>
  <circle cx="36" cy="32" r="2.5" fill="#4A90E2"/>
  <circle cx="25" cy="40" r="2.5" fill="#4A90E2"/>
  <circle cx="32" cy="40" r="2.5" fill="#4A90E2"/>
  <circle cx="39" cy="40" r="2.5" fill="#4A90E2"/>
  
  <!-- 连接线 -->
  <line x1="25" y1="22" x2="28" y2="32" stroke="#4A90E2" stroke-width="1" opacity="0.6"/>
  <line x1="32" y1="22" x2="28" y2="32" stroke="#4A90E2" stroke-width="1" opacity="0.6"/>
  <line x1="32" y1="22" x2="36" y2="32" stroke="#4A90E2" stroke-width="1" opacity="0.6"/>
  <line x1="39" y1="22" x2="36" y2="32" stroke="#4A90E2" stroke-width="1" opacity="0.6"/>
  <line x1="28" y1="32" x2="25" y2="40" stroke="#4A90E2" stroke-width="1" opacity="0.6"/>
  <line x1="28" y1="32" x2="32" y2="40" stroke="#4A90E2" stroke-width="1" opacity="0.6"/>
  <line x1="36" y1="32" x2="32" y2="40" stroke="#4A90E2" stroke-width="1" opacity="0.6"/>
  <line x1="36" y1="32" x2="39" y2="40" stroke="#4A90E2" stroke-width="1" opacity="0.6"/>
</svg>

